<?xml version="1.0" encoding="UTF-8"?>
<svg width="140px" height="140px" viewBox="0 0 140 140" version="1.1" xmlns="http://www.w3.org/2000/svg" xmlns:xlink="http://www.w3.org/1999/xlink">
    <title>Synology</title>
    <g id="Page-1" stroke="none" stroke-width="1" fill="none" fill-rule="evenodd">
        <g id="Synology">
            <circle id="Oval" fill="#559933" cx="70" cy="70" r="70"></circle>
            <g id="Synology_Logo" transform="translate(10.000000, 54.000000)" fill="#FFFFFF" fill-rule="nonzero">
                <g id="g3051" transform="translate(59.500000, 16.000000) scale(-1, 1) rotate(-180.000000) translate(-59.500000, -16.000000) translate(0.000000, -0.000000)">
                    <g id="g12" transform="translate(0.121866, 6.810513)">
                        <path d="M0,7.61026698 L4.0931117,7.99858043 C4.34581686,6.60642261 4.84648153,5.57973627 5.59985137,4.92333025 C6.35678043,4.27173307 7.37946515,3.94713668 8.6643463,3.94713668 C10.0215984,3.94713668 11.0466559,4.24167785 11.7430781,4.81994029 C12.4311955,5.41142703 12.7716949,6.08586619 12.7716949,6.85768425 C12.7716949,7.35900533 12.6257666,7.79540714 12.339842,8.14645211 C12.0491717,8.49148605 11.5437614,8.80406034 10.8247974,9.05171536 C10.327692,9.24406877 9.20297607,9.55063202 7.4506497,10.0014603 C5.1905402,10.5652963 3.6031247,11.2709929 2.70026731,12.0993147 C1.41894539,13.2774794 0.775911609,14.7129167 0.775911609,16.3936047 C0.775911609,17.4755926 1.0713275,18.4986723 1.68351464,19.4315864 C2.28383769,20.3789269 3.15940767,21.09905 4.2995469,21.5991689 C5.4361269,22.0800524 6.79693824,22.3313141 8.4187596,22.3313141 C11.0395375,22.3313141 13.012536,21.7434339 14.3436871,20.574887 C15.671279,19.3847002 16.3629555,17.823031 16.428208,15.8634306 L12.1903544,15.7191655 C12.0029018,16.7891314 11.6279965,17.5777804 11.0276734,18.0610683 C10.4392144,18.5407496 9.54822114,18.7811914 8.36893041,18.7811914 C7.14574254,18.7811914 6.1847511,18.5263231 5.49663377,18.0069689 C5.04579828,17.6727549 4.82393976,17.2435663 4.82393976,16.6953591 C4.82393976,16.1844203 5.03037496,15.7636472 5.45036381,15.4041868 C5.9783159,14.9401342 7.27506114,14.4676661 9.32517622,13.9819738 C11.3800369,13.4866637 12.8938951,12.9745228 13.873869,12.4443487 C14.8562159,11.9141746 15.6285682,11.1916471 16.1838077,10.2695529 C16.7343016,9.3703007 17.0214126,8.22098906 17.0214126,6.87090855 C17.0214126,5.65427322 16.6844724,4.50255716 16.0188969,3.44341119 C15.3533213,2.38426521 14.4089396,1.58359413 13.1928702,1.06303771 C11.9720551,0.556907795 10.4546378,0.286410809 8.63705889,0.286410809 C5.99017999,0.286410809 3.951929,0.912761607 2.53535643,2.16666541 C1.12115668,3.41335597 0.275246932,5.2298935 0,7.61026698" id="path14"></path>
                    </g>
                    <g id="g16" transform="translate(16.607378, 0.881219)">
                        <path d="M0,22.0367729 L4.24971771,22.0367729 L7.88012983,11.0858527 L11.418002,22.0367729 L15.5597565,22.0367729 L10.2363385,7.20632481 L9.26111012,4.50015274 C8.90874659,3.59729392 8.57655202,2.91323709 8.25859436,2.43956682 C7.94063669,1.95627887 7.57403626,1.56676321 7.16116586,1.27703088 C6.7399906,0.989702972 6.23102105,0.757676669 5.63781646,0.592974059 C5.03037496,0.425867033 4.34937608,0.333296953 3.58770138,0.333296953 C2.82009464,0.333296953 2.06197917,0.425867033 1.31572779,0.592974059 L0.983533217,3.79686058 C1.60639804,3.6634154 2.17231522,3.59729392 2.67416631,3.59729392 C3.59956548,3.59729392 4.28886921,3.87380195 4.73139984,4.4256158 C5.17867611,4.99305836 5.52036195,5.70957482 5.75645738,6.56795192 L0,22.0367729 Z" id="path18"></path>
                    </g>
                    <g id="g20" transform="translate(31.865668, 7.491248)">
                        <path d="M14.2369103,0 L10.2351521,0 L10.2351521,7.85282805 C10.2351521,9.5070674 10.1521034,10.5734266 9.97532845,11.0663322 C9.79973989,11.5532268 9.52805219,11.9331248 9.13416434,12.204824 C8.74739494,12.4729166 8.27283127,12.6087662 7.73064227,12.6087662 C7.02710162,12.6087662 6.40305039,12.4116039 5.84069243,12.0232905 C5.27833448,11.6397859 4.89986995,11.1312515 4.69343475,10.5036985 C4.49055878,9.85931458 4.38378195,8.68956539 4.38378195,6.96199131 L4.38378195,0 L0.390328623,0 L0.390328623,15.4267437 L4.08955247,15.4267437 L4.08955247,13.1677933 C5.42070358,14.876132 7.09116772,15.7200826 9.10687693,15.7200826 C10.0026159,15.7200826 10.8129333,15.5541778 11.5520663,15.2440079 C12.2900128,14.9097939 12.8523707,14.5082561 13.2225304,13.9997218 C13.5986221,13.4959963 13.862005,12.9261493 14.0114925,12.2949897 C14.1597937,11.6662344 14.2369103,10.7429381 14.2369103,9.55876238 L14.2369103,0 Z" id="path22"></path>
                    </g>
                    <g id="g24" transform="translate(45.873579, 6.745879)">
                        <path d="M4.34833035,8.41546178 C4.34833035,6.87543228 4.70425311,5.69846984 5.42677631,4.90020317 C6.14692668,4.07669013 7.02961512,3.66673692 8.0855193,3.66673692 C9.14142347,3.66673692 10.0252983,4.07669013 10.7442623,4.90020317 C11.4513622,5.69846984 11.8072849,6.88865657 11.8072849,8.43469712 C11.8072849,9.95909791 11.4513622,11.1240383 10.7442623,11.9307204 C10.0252983,12.7374025 9.14142347,13.1557712 8.0855193,13.1557712 C7.02961512,13.1557712 6.14692668,12.7374025 5.42677631,11.9307204 C4.70425311,11.1240383 4.34833035,9.94587362 4.34833035,8.41546178 M0.251659428,8.62103949 C0.251659428,9.98915314 0.58504041,11.2875387 1.2423111,12.5630822 C1.89958179,13.8266037 2.83328582,14.795584 4.04223678,15.468821 C5.25118775,16.1384513 6.6013214,16.4642499 8.08907852,16.4642499 C10.395458,16.4642499 12.2782894,15.7092627 13.7458775,14.1944796 C15.2182113,12.6784943 15.9573443,10.7633756 15.9573443,8.45393246 C15.9573443,6.12044513 15.2122793,4.19450659 13.726895,2.65688151 C12.2438835,1.12767188 10.369357,0.349842768 8.11636593,0.349842768 C6.72352155,0.349842768 5.39592967,0.67564136 4.12647184,1.31401425 C2.86057323,1.95358934 1.89958179,2.88890781 1.2423111,4.12838511 C0.58504041,5.35463811 0.251659428,6.85379252 0.251659428,8.62103949" id="path26"></path>
                    </g>
                    <g id="g28" transform="translate(61.604156, 7.185745)">
                        <path d="M5.13743314,23.6415791 L5.13743314,3.7245855 C5.13743314,2.77484052 5.20624488,2.14608531 5.3379363,1.8455331 C5.47555976,1.53055439 5.68080855,1.29852809 5.95961471,1.14103873 C6.24316651,0.983549374 6.76755937,0.901799174 7.52448843,0.901799174 L7.52448843,0.305503596 L0.261291383,0.305503596 L0.261291383,0.901799174 C0.942290256,0.901799174 1.40498984,0.972729494 1.66599986,1.1230056 C1.90565452,1.27087728 2.10022562,1.49569033 2.24140832,1.82870218 C2.38377742,2.15450077 2.44902993,2.7856604 2.44902993,3.7245855 L2.44902993,17.3155563 C2.44902993,19.0262994 2.41462406,20.0722211 2.3422531,20.4677478 C2.27344137,20.8596679 2.15005481,21.1217494 1.98988957,21.2612056 C1.82497869,21.4090773 1.6197299,21.4908275 1.36939756,21.4908275 C1.09889627,21.4908275 0.750091968,21.389842 0.333662343,21.222735 L0.0572290023,21.8058062 L4.41965559,23.6415791 L5.13743314,23.6415791 Z" id="path30"></path>
                    </g>
                    <g id="g32" transform="translate(69.121386, 7.038933)">
                        <path d="M6.72114873,14.8235199 C6.14692668,14.8235199 5.57389105,14.6732438 4.99610977,14.3197944 C4.4183285,13.9723561 3.94851046,13.3784649 3.59140129,12.5248967 C3.23666495,11.6544975 3.05751716,10.5532742 3.05751716,9.20199146 C3.05751716,7.01757803 3.49292933,5.15535655 4.34477113,3.56002544 C5.2061042,1.99234513 6.33437933,1.19287626 7.73434218,1.19287626 C8.79024635,1.19287626 9.65039301,1.64009795 10.3242734,2.50328388 C11.0088315,3.37368307 11.3505174,4.87043306 11.3505174,7.00194931 C11.3505174,9.66604407 10.7834138,11.7470675 9.65039301,13.2774794 C8.88278627,14.31739 7.90637151,14.8235199 6.72114873,14.8235199 M7.21825418,15.9283498 C9.47124523,15.9283498 11.2734008,15.0639617 12.6377713,13.3351854 C13.7933339,11.8624796 14.3711152,10.1697696 14.3711152,8.25825753 C14.3711152,6.90937923 14.0579031,5.54847884 13.4184286,4.17796078 C12.778954,2.80263388 11.9033841,1.76272325 10.7786682,1.06544213 C9.65869788,0.364554382 8.41890028,0.0147116141 7.04622485,0.0147116141 C4.80153866,0.0147116141 3.02192488,0.917570442 1.70619709,2.71487264 C0.593345275,4.22965576 0.0345465471,5.93679229 0.0345465471,7.83267561 C0.0345465471,9.21281134 0.371486756,10.5725095 1.04418077,11.9261967 C1.72636605,13.2967147 2.61261371,14.2933458 3.71834708,14.9605717 C4.82052121,15.6001468 5.98676144,15.9283498 7.21825418,15.9283498" id="path34"></path>
                    </g>
                    <g id="g36" transform="translate(82.444902, 0.102188)">
                        <path d="M7.11845513,22.0367729 C6.32237456,22.0367729 5.66510387,21.7001544 5.12410128,21.0593771 C4.59021715,20.419802 4.3256479,19.4592372 4.3256479,18.1295942 C4.3256479,16.4176488 4.68868911,15.0904103 5.41595794,14.1406653 C5.97712949,13.4265533 6.67829732,13.0694973 7.53132552,13.0694973 C8.34520223,13.0694973 9.01908265,13.3856782 9.53872987,14.0036135 C10.0631227,14.6227511 10.3229463,15.5869225 10.3229463,16.9045434 C10.3229463,18.6381285 9.95990513,19.982198 9.22195862,20.9559872 C8.66671912,21.6640882 7.97029692,22.0367729 7.11845513,22.0367729 M4.16548266,7.38906055 C3.67193644,6.84806658 3.30414959,6.32751016 3.0478852,5.83821117 C2.79162082,5.38137181 2.6729799,4.93294792 2.6729799,4.54223005 C2.6729799,4.00484271 2.97907347,3.55641882 3.6031247,3.16449874 C4.68157066,2.49727284 6.23813951,2.14983449 8.27045845,2.14983449 C10.2043054,2.14983449 11.62681,2.49727284 12.5533956,3.18734071 C13.4787948,3.87019532 13.9343759,4.60113829 13.9343759,5.38137181 C13.9343759,5.93559008 13.659129,6.33833004 13.1074487,6.5787718 C12.5450908,6.82041578 11.4369846,6.959872 9.76770684,6.99473606 C7.34031365,7.0680708 5.46815995,7.21113365 4.16548266,7.38906055 M4.29836049,12.8963792 C3.3966895,13.361634 2.71094499,13.9735583 2.22214441,14.7754316 C1.74402151,15.5869225 1.50199403,16.4669394 1.50199403,17.4323131 C1.50199403,18.9206476 2.04655585,20.2046066 3.14754358,21.2577416 C4.25327694,22.3265052 5.6686631,22.866297 7.39014283,22.866297 C8.79603772,22.866297 10.0168528,22.5296785 11.0490288,21.8275886 L14.1835218,21.8275886 C14.6497807,21.8275886 14.9167227,21.8119598 14.9973985,21.7855112 C15.0673967,21.749445 15.1148531,21.7001544 15.1540046,21.646055 C15.2156978,21.5438673 15.2524765,21.369547 15.2524765,21.121892 C15.2524765,20.8357663 15.2228163,20.6253797 15.1694279,20.5255964 C15.1362084,20.4702948 15.0816336,20.419802 14.9973985,20.3981623 C14.9167227,20.3657026 14.6497807,20.3512761 14.1787762,20.3512761 L12.247302,20.3512761 C12.8594892,19.5614249 13.1620235,18.5515695 13.1620235,17.3229121 C13.1620235,15.9283498 12.626953,14.7237366 11.5769809,13.7343187 C10.5210767,12.7376876 9.10687693,12.2339621 7.34031365,12.2339621 C6.60592636,12.2339621 5.85848857,12.3433631 5.09088183,12.5874115 C4.64004633,12.1570208 4.33276635,11.7987625 4.18090598,11.4873904 C4.0159951,11.1676029 3.93531928,10.9079258 3.93531928,10.6975392 C3.93531928,10.4967704 4.02311356,10.3248545 4.20700698,10.1409166 C4.37903631,9.97140511 4.73139984,9.84276877 5.24748784,9.77183845 C5.54171732,9.71533463 6.30339202,9.67325732 7.50403811,9.63839327 C9.71787766,9.56746295 11.156992,9.48210612 11.8071442,9.3703007 C12.80966,9.22964227 13.612859,8.84733986 14.2096228,8.24503324 C14.8063867,7.63791778 15.1041754,6.89615493 15.1041754,6.01012703 C15.1041754,4.79228949 14.5311397,3.63215797 13.3921869,2.5597877 C11.7229092,0.98128751 9.53517064,0.190234103 6.83846256,0.190234103 C4.76580571,0.190234103 3.01347934,0.653084501 1.58385627,1.60282947 C0.775911609,2.14983449 0.378464531,2.71126601 0.378464531,3.30515717 C0.378464531,3.55641882 0.436598581,3.82451138 0.546934636,4.08659291 C0.726082423,4.49774833 1.0974285,5.03633788 1.65504082,5.75886538 C1.72859819,5.86225534 2.27197359,6.44773104 3.26974372,7.52010131 C2.71450422,7.87355071 2.31824355,8.1716985 2.09282581,8.44820653 C1.86147602,8.7162991 1.74402151,9.02526676 1.74402151,9.36068303 C1.74402151,9.75019869 1.89232265,10.1962182 2.194857,10.7071569 C2.50095057,11.2301178 3.20449122,11.9658696 4.29836049,12.8963792" id="path38"></path>
                    </g>
                    <g id="g40" transform="translate(98.156518, 0.090308)">
                        <path d="M0,22.4393703 L6.9345617,22.4393703 L6.9345617,21.8382659 L6.5988079,21.8382659 C6.10882091,21.8382659 5.7457797,21.7228538 5.5013794,21.5196805 C5.25935193,21.2996763 5.14189742,21.0351904 5.14189742,20.7262227 C5.14189742,20.2910231 5.31392675,19.7055474 5.67696796,18.9541669 L9.29195676,11.3538027 L12.600852,19.6574591 C12.783559,20.1142984 12.8760989,20.5519024 12.8760989,21.0051352 C12.8760989,21.199893 12.829829,21.3429558 12.7622036,21.4391325 C12.6732229,21.5557468 12.5391587,21.6591368 12.3552653,21.7228538 C12.1749311,21.7961886 11.8474822,21.8382659 11.3883418,21.8382659 L11.3883418,22.4393703 L16.1849941,22.4393703 L16.1849941,21.8382659 C15.7863607,21.7961886 15.4778943,21.7036185 15.2631542,21.5749821 C15.0436685,21.4391325 14.8075731,21.199893 14.5513087,20.8476458 C14.4516503,20.6889542 14.259452,20.2765966 13.9960692,19.5865287 L7.98809306,4.60700678 C7.40200692,3.14632305 6.636773,2.05471744 5.68527283,1.31055017 C4.73614548,0.560371867 3.82142399,0.202113637 2.94229479,0.202113637 C2.30282023,0.202113637 1.77961378,0.375231708 1.36199775,0.757534114 C0.952686578,1.12420781 0.747437788,1.54858752 0.747437788,2.0354821 C0.747437788,2.48991703 0.894552528,2.84456864 1.19352764,3.12949213 C1.49131635,3.41922446 1.90893238,3.5478608 2.42620679,3.5478608 C2.78568877,3.5478608 3.279235,3.43004433 3.89498136,3.19801803 C4.32683431,3.04774193 4.60208124,2.95156522 4.7136037,2.95156522 C5.03867982,2.95156522 5.38629771,3.12949213 5.77662634,3.4661106 C6.15865009,3.80032465 6.54541949,4.45432625 6.93218888,5.41729552 L7.9797882,8.03330193 L2.64331967,19.3340649 C2.48078161,19.6766944 2.21977159,20.0950631 1.86740806,20.6023952 C1.59572036,20.981091 1.37386184,21.2407681 1.20183251,21.3814265 C0.952686578,21.5449269 0.550493863,21.7036185 0,21.8382659 L0,22.4393703 Z" id="path42"></path>
                    </g>
                    <g id="g44" transform="translate(114.312757, 23.197964)">
                        <path d="M0.391796393,2.00182025 L1.22821487,2.00182025 C1.40498984,2.00182025 1.54735894,2.01264013 1.6458309,2.06433511 C1.7490485,2.08597487 1.82260587,2.16051181 1.87480788,2.23865539 C1.93294193,2.32521442 1.95667011,2.4177845 1.95667011,2.51396121 C1.95667011,2.64981081 1.90684093,2.76522285 1.80243692,2.85899514 C1.70396496,2.9491608 1.54261331,2.99484474 1.32905965,2.99484474 L0.391796393,2.99484474 L0.391796393,2.00182025 Z M0.00146777045,0.327143355 L0.00146777045,3.33506984 L1.30533147,3.33506984 C1.56990072,3.33506984 1.76803105,3.30140799 1.91040015,3.23889313 C2.05276926,3.18960257 2.15005481,3.09583028 2.23547627,2.96719394 C2.31971132,2.82052446 2.35649001,2.66904615 2.35649001,2.51396121 C2.35649001,2.29275479 2.29242391,2.11362567 2.15005481,1.97416945 C2.02073621,1.82389334 1.81074178,1.72651443 1.52718999,1.68804375 C1.63515322,1.63755098 1.71108341,1.58345158 1.7609126,1.54017206 C1.87480788,1.43557989 1.98277111,1.30453913 2.08242949,1.14945419 L2.59851748,0.327143355 L2.11208972,0.327143355 L1.71820187,0.948685318 C1.60430658,1.11819676 1.50820744,1.26606845 1.43465007,1.35863853 C1.35516065,1.46082628 1.29821301,1.52093672 1.23651974,1.5726317 C1.18194491,1.60749575 1.12262445,1.62192226 1.06093118,1.6411576 C1.01584763,1.6543819 0.938731029,1.66159515 0.837886248,1.66159515 L0.391796393,1.66159515 L0.391796393,0.327143355 L0.00146777045,0.327143355 Z" id="path46"></path>
                    </g>
                    <g id="g48" transform="translate(112.362352, 22.737661)">
                        <path d="M3.10980844,0.107597684 C1.86403177,0.107597684 0.850292137,1.14109399 0.850292137,2.40441765 C0.850292137,3.67141269 1.85936228,4.69041774 3.10980844,4.69041774 C4.35350125,4.69041774 5.36220629,3.66983891 5.36220629,2.40441765 C5.36220629,1.14268188 4.34884155,0.107597684 3.10980844,0.107597684 Z M3.10980844,0.322793076 C4.23117345,0.322793076 5.14983903,1.26114843 5.14983903,2.40441765 C5.14983903,3.55091616 4.23628657,4.47522235 3.10980844,4.47522235 C1.97648664,4.47522235 1.06265939,3.55239792 1.06265939,2.40441765 C1.06265939,1.25965159 1.9816086,0.322793076 3.10980844,0.322793076 Z" id="path50"></path>
                    </g>
                </g>
            </g>
        </g>
    </g>
</svg>
